<svg width="104" height="104" viewBox="0 0 104 104" fill="none" xmlns="http://www.w3.org/2000/svg">
<path d="M93.6203 29.709V100.344H10.3797V29.6744H37.5801L53.3101 16.906L69.0422 29.6744H93.6203V29.709Z" fill="white"/>
<path d="M78.7008 61.1406H25.2992C24.2029 61.1413 23.1508 61.573 22.3699 62.3425C21.589 63.112 21.1418 64.1577 21.125 65.2539V76.7812H82.875V65.2539C82.8582 64.1577 82.411 63.112 81.6301 62.3425C80.8492 61.573 79.7971 61.1413 78.7008 61.1406Z" fill="white"/>
<path d="M82.2453 88.8427C82.2474 89.1078 82.1973 89.3706 82.0978 89.6163C81.9982 89.8619 81.8513 90.0856 81.6653 90.2744C81.4793 90.4632 81.2579 90.6136 81.0137 90.7168C80.7696 90.82 80.5075 90.8741 80.2425 90.876L74.7805 90.9105C74.5156 90.9127 74.2529 90.8627 74.0073 90.7633C73.7618 90.6639 73.5382 90.5171 73.3494 90.3313C73.1606 90.1455 73.0102 89.9243 72.9069 89.6804C72.8035 89.4365 72.7493 89.1746 72.7472 88.9097L72.7045 82.2818V82.1985H82.2006V82.2147L82.2453 88.8427Z" fill="#6D7486"/>
<path d="M74.2991 49.6539L78.4753 61.1569H25.5247L29.7009 49.6539C30.0039 48.8198 30.5564 48.0992 31.2832 47.5901C32.0101 47.0809 32.876 46.8079 33.7634 46.8081H70.2366C71.124 46.8079 71.99 47.0809 72.7168 47.5901C73.4436 48.0992 73.9961 48.8198 74.2991 49.6539Z" fill="white"/>
<path d="M31.2955 88.8427C31.2976 89.1076 31.2476 89.3703 31.1482 89.6159C31.0488 89.8614 30.902 90.085 30.7163 90.2738C30.5305 90.4626 30.3093 90.613 30.0654 90.7163C29.8214 90.8196 29.5596 90.8739 29.2947 90.876L23.8306 90.9105C23.5658 90.9126 23.3032 90.8626 23.0578 90.7631C22.8124 90.6637 22.589 90.5169 22.4004 90.3311C22.2117 90.1453 22.0615 89.9241 21.9584 89.6802C21.8553 89.4363 21.8012 89.1745 21.7994 88.9097L21.7547 82.2818V82.1985H31.2528V82.2147L31.2955 88.8427Z" fill="#6D7486"/>
<path d="M74.1731 65.1177C74.6261 65.1177 75.0746 65.2069 75.493 65.3802C75.9115 65.5536 76.2917 65.8076 76.612 66.1279C76.9323 66.4482 77.1863 66.8284 77.3596 67.2468C77.533 67.6653 77.6222 68.1138 77.6222 68.5667C77.6222 69.0197 77.533 69.4682 77.3596 69.8866C77.1863 70.3051 76.9323 70.6853 76.612 71.0056C76.2917 71.3259 75.9115 71.5799 75.493 71.7533C75.0746 71.9266 74.6261 72.0158 74.1731 72.0158H66.7977L68.1322 65.1177H74.1731Z" fill="#EB2629"/>
<path d="M62.7453 72.7939L65.585 76.7366H37.3588L40.1964 72.7939H62.7453Z" fill="white"/>
<path d="M34.9558 65.1177L36.2883 72.0158H28.9128C28.4599 72.0158 28.0114 71.9266 27.5929 71.7533C27.1744 71.5799 26.7942 71.3259 26.474 71.0056C26.1537 70.6853 25.8996 70.3051 25.7263 69.8866C25.553 69.4682 25.4637 69.0197 25.4637 68.5667C25.4637 68.1138 25.553 67.6653 25.7263 67.2468C25.8996 66.8284 26.1537 66.4482 26.474 66.1279C26.7942 65.8076 27.1744 65.5536 27.5929 65.3802C28.0114 65.2069 28.4599 65.1177 28.9128 65.1177H34.9558Z" fill="#EB2629"/>
<path d="M83.7017 76.5781H20.2983C20.1544 76.5668 20.0117 76.612 19.9006 76.7042C19.7895 76.7964 19.7186 76.9282 19.7031 77.0717V82.2717C19.7138 82.4268 19.7797 82.573 19.8889 82.6837C19.9981 82.7944 20.1433 82.8622 20.2983 82.875H83.7017C83.8567 82.8622 84.0019 82.7944 84.1111 82.6837C84.2203 82.573 84.2862 82.4268 84.2969 82.2717V77.0717C84.2814 76.9282 84.2105 76.7964 84.0994 76.7042C83.9883 76.612 83.8456 76.5668 83.7017 76.5781Z" fill="white"/>
<path d="M16.4531 29.6562H10.3594V29.7091V100.344H16.4531V29.7091V29.6562Z" fill="white"/>
<path d="M40.8373 70.4844H62.2499C62.5731 70.4844 62.8831 70.356 63.1117 70.1274C63.3402 69.8989 63.4686 69.5889 63.4686 69.2656C63.4686 68.9424 63.3402 68.6324 63.1117 68.4038C62.8831 68.1753 62.5731 68.0469 62.2499 68.0469H40.8373C40.514 68.0469 40.2041 68.1753 39.9755 68.4038C39.7469 68.6324 39.6185 68.9424 39.6185 69.2656C39.6185 69.5889 39.7469 69.8989 39.9755 70.1274C40.2041 70.356 40.514 70.4844 40.8373 70.4844Z" fill="#1C1B18"/>
<path d="M40.8373 67.0312H62.2499C62.5731 67.0312 62.8831 66.9028 63.1117 66.6743C63.3402 66.4457 63.4686 66.1357 63.4686 65.8125C63.4686 65.4893 63.3402 65.1793 63.1117 64.9507C62.8831 64.7222 62.5731 64.5938 62.2499 64.5938H40.8373C40.514 64.5938 40.2041 64.7222 39.9755 64.9507C39.7469 65.1793 39.6185 65.4893 39.6185 65.8125C39.6185 66.1357 39.7469 66.4457 39.9755 66.6743C40.2041 66.9028 40.514 67.0312 40.8373 67.0312Z" fill="#1C1B18"/>
<path d="M66.7985 73.328H74.1735C75.4126 73.328 76.6009 72.8358 77.477 71.9597C78.3532 71.0835 78.8454 69.8952 78.8454 68.6561C78.8454 67.4171 78.3532 66.2288 77.477 65.3526C76.6009 64.4765 75.4126 63.9843 74.1735 63.9843H68.1322C67.8533 63.9751 67.5802 64.0649 67.3612 64.2378C67.1422 64.4106 66.9914 64.6554 66.9356 64.9288L65.6021 71.8066C65.5679 71.9886 65.5731 72.1759 65.6174 72.3557C65.6616 72.5356 65.7439 72.7039 65.8586 72.8493C65.9711 72.9926 66.1134 73.1096 66.2757 73.1923C66.438 73.275 66.6164 73.3213 66.7985 73.328ZM69.1379 66.4218H74.1735C74.7661 66.4218 75.3344 66.6572 75.7535 67.0762C76.1725 67.4952 76.4079 68.0636 76.4079 68.6561C76.4079 69.2487 76.1725 69.8171 75.7535 70.2361C75.3344 70.6551 74.7661 70.8905 74.1735 70.8905H68.2754L69.1379 66.4218Z" fill="#EB2629"/>
<path d="M28.9136 73.3282H36.2885C36.4711 73.3178 36.6493 73.2687 36.8115 73.1842C36.9736 73.0997 37.116 72.9817 37.2291 72.838C37.3423 72.6943 37.4236 72.5283 37.4677 72.3508C37.5118 72.1734 37.5178 71.9886 37.4851 71.8086L36.1516 64.9406C36.0963 64.666 35.9461 64.4196 35.7273 64.2448C35.5084 64.0699 35.235 63.9778 34.955 63.9845H28.9136C27.6746 63.9845 26.4863 64.4767 25.6101 65.3528C24.734 66.229 24.2418 67.4173 24.2418 68.6563C24.2418 69.8954 24.734 71.0837 25.6101 71.9599C26.4863 72.836 27.6746 73.3282 28.9136 73.3282ZM28.9136 66.422H33.9493L34.8118 70.8907H28.9136C28.321 70.8907 27.7527 70.6553 27.3337 70.2363C26.9147 69.8173 26.6793 69.2489 26.6793 68.6563C26.6793 68.0638 26.9147 67.4954 27.3337 67.0764C27.7527 66.6574 28.321 66.422 28.9136 66.422Z" fill="#EB2629"/>
<path d="M28.5547 49.1944L24.6169 59.9558C23.3228 60.118 22.1316 60.7448 21.2651 61.7195C20.3986 62.6943 19.9157 63.9507 19.9062 65.2549V75.5483C19.5047 75.6243 19.1425 75.8387 18.8828 76.1542C18.623 76.4696 18.482 76.8662 18.4844 77.2748V82.0686C18.4954 82.5469 18.6898 83.0028 19.0273 83.3419C19.3649 83.681 19.8198 83.8774 20.2981 83.8906H20.5439L20.5796 88.9513C20.5834 89.8182 20.9302 90.6483 21.5442 91.2602C22.1451 91.866 22.9607 92.2105 23.814 92.2188H23.8385L29.3026 92.1375C29.7268 92.1352 30.1465 92.0493 30.5375 91.8848C30.9285 91.7203 31.2833 91.4803 31.5816 91.1786C31.8799 90.877 32.1158 90.5195 32.2759 90.1266C32.436 89.7337 32.5171 89.3132 32.5146 88.8889L32.4797 83.8906H71.4931L71.529 88.9513C71.5327 89.8182 71.8795 90.6484 72.4937 91.2602C73.0945 91.866 73.91 92.2104 74.7632 92.2188H74.788L80.252 92.1375C80.6785 92.1314 81.0996 92.0411 81.4911 91.8717C81.8825 91.7024 82.2367 91.4574 82.5331 91.1507C82.832 90.8531 83.0683 90.4987 83.2282 90.1084C83.3881 89.7181 83.4683 89.2997 83.4641 88.878L83.4289 83.8906H83.7019C84.1802 83.8774 84.6352 83.6809 84.9728 83.3418C85.3103 83.0026 85.5047 82.5468 85.5156 82.0684V77.2746C85.518 76.866 85.377 76.4694 85.1172 76.154C84.8575 75.8385 84.4953 75.6241 84.0938 75.5481V65.2549C84.0836 63.9532 83.5999 62.6997 82.733 61.7285C81.8661 60.7574 80.6753 60.1351 79.3831 59.9779L75.4642 49.1942C75.0719 48.1199 74.3613 47.1907 73.4272 46.5307C72.4932 45.8706 71.38 45.5111 70.2364 45.5H33.7634C32.6221 45.5114 31.5116 45.8714 30.5807 46.5317C29.6497 47.192 28.9428 48.1211 28.5547 49.1944ZM29.286 89.7179L23.8219 89.7819H23.8178C23.6022 89.7661 23.4008 89.6681 23.2554 89.508C23.1807 89.4368 23.1212 89.3512 23.0803 89.2564C23.0395 89.1616 23.0181 89.0596 23.0175 88.9564L22.9816 83.8906H30.0422L30.0777 88.8853C30.0801 89.0998 29.9987 89.3068 29.8508 89.4622C29.7028 89.6175 29.5001 89.7091 29.2857 89.7173L29.286 89.7179ZM80.797 89.4359C80.6521 89.5966 80.4503 89.6945 80.2344 89.7089L74.7703 89.7812H74.764C74.5491 89.7651 74.3485 89.667 74.2038 89.5072C74.1291 89.436 74.0695 89.3505 74.0286 89.2557C73.9878 89.161 73.9664 89.0589 73.9659 88.9557L73.9308 83.8906H80.9912L81.0266 88.8855C81.0277 88.988 81.008 89.0897 80.9685 89.1843C80.929 89.279 80.8707 89.3646 80.797 89.4359ZM83.0781 78V81.4531H20.9219V78H83.0781ZM39.7371 75.5625L40.8212 73.9375H62.1219L63.206 75.5625H39.7371ZM81.6562 65.2549V75.5625H66.21L63.7347 72.0665C63.6248 71.902 63.4783 71.7653 63.3066 71.667C63.1349 71.5687 62.9428 71.5115 62.7453 71.5H40.1972C39.9998 71.5116 39.8078 71.5688 39.6362 71.6671C39.4646 71.7654 39.3181 71.9021 39.2082 72.0665L36.7331 75.5625H22.3437V65.2549C22.3613 64.482 22.6804 63.7465 23.2327 63.2055C23.7851 62.6645 24.5271 62.3609 25.3002 62.3594H78.6998C79.4729 62.3609 80.2149 62.6645 80.7673 63.2055C81.3196 63.7465 81.6387 64.482 81.6562 65.2549ZM73.154 50.0183L76.7368 59.9219H27.2632L30.8457 50.0185C31.0626 49.416 31.4581 48.8939 31.9794 48.5221C32.5008 48.1502 33.1231 47.9463 33.7634 47.9375H70.2364C70.8766 47.9463 71.499 48.1502 72.0203 48.522C72.5417 48.8938 72.9372 49.4158 73.154 50.0183Z" fill="#1C1B18"/>
</svg>
