<svg width="92" height="92" viewBox="0 0 92 92" fill="none" xmlns="http://www.w3.org/2000/svg">
<path d="M82.6337 38.6095L82.6345 38.6096C85.8944 39.1964 88.2671 42.0394 88.2688 45.354V58.9677H3.82892V23.0457C3.82892 21.9655 4.70324 21.0923 5.78238 21.0923H52.2108C53.8794 21.0923 55.4906 21.7024 56.7445 22.8038C56.7446 22.804 56.7448 22.8041 56.7449 22.8042L72.4043 36.6123L72.6133 36.7966L72.8876 36.8462L82.6337 38.6095Z" fill="white" stroke="black" stroke-width="2"/>
<path d="M8.4671 34.8504V25.7358H35.6555V34.8504H8.4671Z" fill="white" stroke="black" stroke-width="2"/>
<path d="M53.681 26.285L63.3871 34.8504H42.2956V25.7358H52.2051C52.7487 25.7358 53.2751 25.9296 53.6799 26.284C53.6802 26.2843 53.6806 26.2847 53.681 26.285Z" fill="white" stroke="black" stroke-width="2"/>
<path d="M89.1671 58.8767H2.82894C1.26695 58.8767 0 60.1456 0 61.7056C0 63.2658 1.26695 64.5366 2.82894 64.5366H89.1691C90.7311 64.5366 92 63.2678 92 61.7056C92 60.1437 90.7311 58.8767 89.1671 58.8767Z" fill="#1C1B18"/>
<path d="M83.9041 62.9228C83.9041 57.9587 79.8812 53.9377 74.919 53.9377C69.9569 53.9377 65.934 57.9589 65.934 62.9228C65.934 67.8868 69.9589 71.9079 74.919 71.9079C79.8792 71.9079 83.9041 67.8868 83.9041 62.9228Z" fill="#40596B"/>
<path d="M79.6473 62.9227C79.6473 60.3142 77.5313 58.1943 74.9209 58.1943C72.3104 58.1943 70.1945 60.3123 70.1945 62.9227C70.1945 65.5332 72.3104 67.6511 74.9209 67.6511C77.5294 67.6509 79.6473 65.5312 79.6473 62.9227Z" fill="white"/>
<path d="M25.5257 62.9228C25.5257 57.9587 21.5028 53.9377 16.5407 53.9377C11.5785 53.9377 7.55557 57.9589 7.55557 62.9228C7.55557 67.8868 11.5785 71.9079 16.5407 71.9079C21.5046 71.9079 25.5257 67.8868 25.5257 62.9228Z" fill="#40596B"/>
<path d="M21.2688 62.9227C21.2688 60.3142 19.1528 58.1943 16.5404 58.1943C13.9319 58.1943 11.814 60.3123 11.814 62.9227C11.814 65.5332 13.9299 67.6511 16.5404 67.6511C19.1508 67.6511 21.2688 65.5312 21.2688 62.9227Z" fill="white"/>
<path d="M90.5836 46.4783H85.9339V54.7141H90.5836V46.4783Z" fill="#EB2629"/>
<path d="M6.16188 46.4783H1.51221V54.7141H6.16188V46.4783Z" fill="#EB2629"/>
<path d="M46.0508 40.7282H43.4806C42.2731 40.7282 41.2937 39.7469 41.2937 38.5413H48.2375C48.2395 39.7468 47.2582 40.7282 46.0508 40.7282Z" fill="#40596B"/>
</svg>
