<svg width="71" height="71" viewBox="0 0 71 71" fill="none" xmlns="http://www.w3.org/2000/svg">
<path d="M50.5781 25.8942V25.8942C50.5782 27.2502 49.4793 28.3526 48.1198 28.3526H22.8793C21.5225 28.3526 20.4211 27.2512 20.4211 25.8943V2.95829C20.4211 1.60143 21.5225 0.5 22.8793 0.5H48.1198C49.4781 0.5 50.5781 1.60126 50.5781 2.95829V25.8942Z" fill="#EB2629" stroke="black"/>
<path d="M46.7922 21.9272L56.2356 22.3601L56.3718 19.3901L46.9284 18.9572L46.7922 21.9272Z" fill="#1C1B18"/>
<path d="M24.0698 18.9613L14.6264 19.3943L14.7626 22.3643L24.206 21.9314L24.0698 18.9613Z" fill="#1C1B18"/>
<path d="M49.0908 31.2171L49.0913 31.2283L49.092 31.2396L50.2656 50.2599C50.3808 53.4264 48.1309 56.2911 44.7887 57.0465L44.7881 57.0467C38.6738 58.4322 32.3268 58.4321 26.2155 57.0467L26.2149 57.0465C22.8715 56.2907 20.6188 53.4252 20.7379 50.2603L21.9072 31.2393L21.9079 31.2282L21.9083 31.2171C22.0153 28.4837 23.8722 26.0518 26.6584 25.1178C26.6584 25.1178 26.6584 25.1178 26.6584 25.1178L35.501 22.1536L44.3406 25.1177L44.3407 25.1178C47.1269 26.0518 48.9838 28.4837 49.0908 31.2171Z" fill="white" stroke="black" stroke-width="2"/>
<path d="M31.6391 26.5407C31.6391 24.4055 31.79 22.3859 32.0579 20.5723H38.9414C39.2092 22.3861 39.3602 24.4056 39.3602 26.5407C39.3602 30.58 38.8248 34.1973 37.986 36.7706C37.5649 38.0628 37.085 39.0362 36.6001 39.6656C36.1044 40.309 35.7242 40.4477 35.5011 40.4477C35.2769 40.4477 34.8961 40.3085 34.4002 39.6653C33.915 39.0359 33.4349 38.0626 33.0136 36.7705C32.1745 34.1972 31.6391 30.5799 31.6391 26.5407Z" fill="white" stroke="black" stroke-width="2"/>
<path d="M35.5011 45.8364C32.985 45.8364 30.9453 47.8762 30.9453 50.3922V66.4471C30.9453 68.9632 32.985 71 35.5011 71C38.0143 71 40.054 68.9632 40.054 66.4471V50.3922C40.054 47.8762 38.0143 45.8364 35.5011 45.8364Z" fill="#415A6B"/>
<path d="M41.3719 50.141V57.668C37.477 58.2178 33.5251 58.2178 29.629 57.6679V50.141C29.629 46.8978 32.2595 44.2688 35.4998 44.2688C38.743 44.2688 41.3719 46.8977 41.3719 50.141Z" fill="white" stroke="black" stroke-width="2"/>
<path d="M49.099 22.6239H21.9003V18.5438C30.9673 17.128 40.0321 17.128 49.099 18.5438V22.6239Z" fill="#1C1B18" stroke="black"/>
<path d="M42.2874 20.053C42.2874 23.8015 39.2498 26.8394 35.4981 26.8394C31.7525 26.8394 28.7147 23.8018 28.7147 20.053C28.7147 16.3042 31.7525 13.2666 35.4981 13.2666C39.2498 13.2666 42.2874 16.3044 42.2874 20.053Z" fill="#1C1B18" stroke="black"/>
<path d="M39.693 20.053C39.693 22.3688 37.816 24.2479 35.501 24.2479C33.1857 24.2479 31.3062 22.3684 31.3062 20.053C31.3062 17.7377 33.1857 15.8582 35.501 15.8582C37.816 15.8582 39.693 17.7373 39.693 20.053Z" fill="white" stroke="black"/>
</svg>
