<svg width="91" height="91" viewBox="0 0 91 91" fill="none" xmlns="http://www.w3.org/2000/svg">
<g clip-path="url(#clip0)">
<path d="M77.5634 29.2883H58.7734V63.3442H89.5592V48.0157L85.9688 35.6066C84.8865 31.8646 81.459 29.2883 77.5634 29.2883Z" fill="#EB2629"/>
<path d="M85.0646 47.8584L81.8647 36.7971C81.3131 34.8957 79.5444 33.5649 77.5634 33.5649H63.0501V47.8584H85.0646Z" fill="white"/>
<path d="M85.0646 47.8584L81.8647 36.7971C81.3131 34.8957 79.5444 33.5649 77.5634 33.5649H63.0501L85.0646 47.8584Z" fill="#F2F2F2"/>
<path d="M5.68702 13.1909H53.0864C55.6736 13.1909 57.7734 15.2893 57.7734 17.8779V62.3419H1V17.8779C1 15.2892 3.09814 13.1909 5.68702 13.1909Z" fill="white" stroke="#1C1B18" stroke-width="2"/>
<path d="M91 63.3401V69.7664H0.00765991V63.3401H9.50499C11.7229 59.3592 15.9882 56.6672 20.879 56.6672C25.7509 56.6672 30.0161 59.3592 32.2531 63.3401H62.8114C65.0293 59.3592 69.2738 56.6672 74.1646 56.6672C79.0555 56.6672 83.3017 59.3592 85.5387 63.3401H91Z" fill="#1C1B18"/>
<path d="M83.2466 69.7267C83.2466 74.7427 79.1804 78.8089 74.1644 78.8089C69.1485 78.8089 65.086 74.7427 65.086 69.7267C65.086 64.7108 69.1503 60.6445 74.1644 60.6445C79.1824 60.6445 83.2466 64.7108 83.2466 69.7267Z" fill="#40596B"/>
<path d="M77.8155 69.7267C77.8155 71.7419 76.1813 73.374 74.1681 73.374C72.153 73.374 70.5171 71.7419 70.5171 69.7267C70.5171 67.7115 72.1512 66.0793 74.1681 66.0793C76.1813 66.0776 77.8155 67.7117 77.8155 69.7267Z" fill="white"/>
<path d="M29.9536 69.7267C29.9536 74.7427 25.8854 78.8089 20.8714 78.8089C15.8555 78.8089 11.7892 74.7427 11.7892 69.7267C11.7892 64.7108 15.8555 60.6445 20.8714 60.6445C25.8854 60.6445 29.9536 64.7108 29.9536 69.7267Z" fill="#40596B"/>
<path d="M24.5187 69.7267C24.5187 71.7418 22.8865 73.374 20.8714 73.374C18.8562 73.374 17.2223 71.7418 17.2223 69.7267C17.2223 67.7115 18.8564 66.0793 20.8714 66.0793C22.8864 66.0793 24.5187 67.7117 24.5187 69.7267Z" fill="white"/>
</g>
<defs>
<clipPath id="clip0">
<rect width="91" height="91" fill="white"/>
</clipPath>
</defs>
</svg>
