<svg width="61" height="61" viewBox="0 0 61 61" fill="none" xmlns="http://www.w3.org/2000/svg">
<rect x="0.5" y="0.5" width="60" height="60" fill="white" stroke="#EB2629"/>
<path d="M25.8957 41.7382L15.4406 31.3418C15.3803 31.2818 15.3325 31.2105 15.2998 31.132C15.2672 31.0535 15.2504 30.9693 15.2504 30.8843C15.2504 30.7993 15.2672 30.7151 15.2998 30.6366C15.3325 30.558 15.3803 30.4868 15.4406 30.4268L18.08 27.7844C18.3323 27.5322 18.7399 27.5322 18.9921 27.7844L25.8751 34.6264C26.1274 34.8786 26.5379 34.8757 26.7901 34.6235L41.9991 19.2679C42.2513 19.0128 42.6619 19.0128 42.917 19.265L45.5594 21.9073C45.8116 22.1595 45.8116 22.5672 45.5623 22.8194L28.9926 39.5387L28.9955 39.5416L26.8107 41.7382C26.5585 41.9904 26.1479 41.9904 25.8957 41.7382Z" fill="#EB2629"/>
</svg>
