<svg width="121" height="172" viewBox="0 0 121 172" fill="none" xmlns="http://www.w3.org/2000/svg">
<path d="M45.75 0.999998V-1.90735e-06H45.5656L45.3933 0.0657806L45.75 0.999998ZM94.25 0.999998H95.25V-1.90735e-06H94.25V0.999998ZM94.25 117.25H93.25V118.25H94.25V117.25ZM120 117.25H121V116.25H120V117.25ZM120 171V172H121V171H120ZM1.75 171H0.75V172H1.75V171ZM1.75 117.25V116.25H0.75V117.25H1.75ZM30 117.25V118.25H31V117.25H30ZM30 62.25H31V60.8103L29.6509 61.3129L30 62.25ZM4.5 71.75H3.5V73.1897L4.84911 72.6871L4.5 71.75ZM4.5 16.75L4.1433 15.8158L3.5 16.0614V16.75H4.5ZM45.75 2H94.25V-1.90735e-06H45.75V2ZM93.25 0.999998V117.25H95.25V0.999998H93.25ZM94.25 118.25H120V116.25H94.25V118.25ZM119 117.25V171H121V117.25H119ZM120 170H1.75V172H120V170ZM2.75 171V117.25H0.75V171H2.75ZM1.75 118.25H30V116.25H1.75V118.25ZM31 117.25V62.25H29V117.25H31ZM29.6509 61.3129L4.15089 70.8129L4.84911 72.6871L30.3491 63.1871L29.6509 61.3129ZM5.5 71.75V16.75H3.5V71.75H5.5ZM4.8567 17.6842L46.1067 1.93422L45.3933 0.0657806L4.1433 15.8158L4.8567 17.6842Z" fill="#EB2629"/>
</svg>
