<svg width="143" height="177" viewBox="0 0 143 177" fill="none" xmlns="http://www.w3.org/2000/svg">
<path d="M6.75 19.5L6.24701 18.6357L5.75 18.9249V19.5H6.75ZM107 7.25L106.656 8.18887L106.663 8.19142L106.67 8.19386L107 7.25ZM132 25.75L132.798 25.1476L132 25.75ZM136.5 83L137.36 83.5111L137.365 83.501L136.5 83ZM120.75 100.5L120.123 99.721L120.117 99.726L120.75 100.5ZM107.75 110L108.327 110.816L107.75 110ZM92.25 122L91.5791 121.258L89.6542 123H92.25V122ZM141.75 122H142.75V121H141.75V122ZM141.75 175.75V176.75H142.75V175.75H141.75ZM1.5 175.75H0.5V176.75H1.5V175.75ZM4 132.75L3.05132 132.434L3.04833 132.443L3.04552 132.452L4 132.75ZM9.5 119.5L8.63176 119.004L8.62771 119.011L8.62379 119.018L9.5 119.5ZM19 108L19.6931 108.721L19.7002 108.714L19.7071 108.707L19 108ZM41.25 90L40.6687 89.1862L40.6618 89.1913L41.25 90ZM44 88L43.4145 87.1893L43.4072 87.1946L43.4 87.2L44 88ZM54.5 81.25L55.0039 82.1138L55.0145 82.1075L54.5 81.25ZM64 75.5L64.5241 76.3517L64.5325 76.3465L64.5408 76.3412L64 75.5ZM70 70.5L69.2929 69.7929L69.2761 69.8097L69.2601 69.8273L70 70.5ZM6.75 79.5H5.75V81.4797L7.34343 80.3049L6.75 79.5ZM7.25299 20.3643C27.4326 8.62039 49.2589 2.74999 72.75 2.74999V0.749992C48.9077 0.749992 26.734 6.71292 6.24701 18.6357L7.25299 20.3643ZM72.75 2.74999C85.4893 2.74999 96.786 4.56997 106.656 8.18887L107.344 6.31112C97.214 2.59669 85.6774 0.749992 72.75 0.749992V2.74999ZM106.67 8.19386C116.475 11.6257 124.648 17.6691 131.202 26.3524L132.798 25.1476C126.018 16.1642 117.525 9.87431 107.33 6.30614L106.67 8.19386ZM131.202 26.3524C137.714 34.981 141 45.7582 141 58.75H143C143 45.4085 139.619 34.1856 132.798 25.1476L131.202 26.3524ZM141 58.75C141 68.4657 139.188 76.3615 135.635 82.499L137.365 83.501C141.145 76.9719 143 68.701 143 58.75H141ZM135.64 82.4889C132.047 88.5332 126.883 94.2796 120.123 99.721L121.377 101.279C128.283 95.7204 133.62 89.8002 137.36 83.5111L135.64 82.4889ZM120.117 99.726C118.316 101.199 114.014 104.344 107.173 109.184L108.327 110.816C115.153 105.989 119.517 102.801 121.383 101.274L120.117 99.726ZM107.173 109.184C100.327 114.025 95.123 118.052 91.5791 121.258L92.9209 122.742C96.377 119.615 101.506 115.641 108.327 110.816L107.173 109.184ZM92.25 123H141.75V121H92.25V123ZM140.75 122V175.75H142.75V122H140.75ZM141.75 174.75H1.5V176.75H141.75V174.75ZM2.5 175.75V149.75H0.5V175.75H2.5ZM2.5 149.75C2.5 143.844 3.32013 138.278 4.95448 133.048L3.04552 132.452C1.34654 137.888 0.5 143.656 0.5 149.75H2.5ZM4.94868 133.066C6.77172 127.597 8.58289 123.243 10.3762 119.982L8.62379 119.018C6.75044 122.424 4.89495 126.903 3.05132 132.434L4.94868 133.066ZM10.3682 119.996C12.3038 116.609 15.3983 112.85 19.6931 108.721L18.3069 107.279C13.935 111.483 10.6962 115.391 8.63176 119.004L10.3682 119.996ZM19.7071 108.707C24.0321 104.382 27.405 101.343 29.8414 99.5564L28.6586 97.9436C26.095 99.8236 22.6346 102.951 18.2929 107.293L19.7071 108.707ZM29.8414 99.5564C32.3397 97.7243 36.3383 94.8086 41.8382 90.8087L40.6618 89.1913C35.1617 93.1913 31.1603 96.109 28.6586 97.9436L29.8414 99.5564ZM41.8312 90.8137C43.0004 89.9786 43.9243 89.3068 44.6 88.8L43.4 87.2C42.7424 87.6932 41.8329 88.3547 40.6688 89.1863L41.8312 90.8137ZM44.5855 88.8107C47.5536 86.667 51.0253 84.4346 55.0039 82.1138L53.9961 80.3862C49.9747 82.732 46.4464 84.9996 43.4145 87.1893L44.5855 88.8107ZM55.0145 82.1075C59.1821 79.607 62.3526 77.688 64.5241 76.3517L63.4759 74.6483C61.3141 75.9787 58.1513 77.893 53.9855 80.3925L55.0145 82.1075ZM64.5408 76.3412C66.9389 74.7995 69.008 73.0778 70.7399 71.1727L69.2601 69.8273C67.6587 71.5889 65.7277 73.2005 63.4592 74.6588L64.5408 76.3412ZM70.7071 71.2071C72.6494 69.2648 73.75 67.1921 73.75 65H71.75C71.75 66.4746 71.0172 68.0686 69.2929 69.7929L70.7071 71.2071ZM73.75 65C73.75 62.2674 72.638 60.1222 70.4083 58.7166C68.2562 57.3598 65.1561 56.75 61.25 56.75V58.75C65.0106 58.75 67.6605 59.3485 69.3417 60.4084C70.9454 61.4194 71.75 62.8992 71.75 65H73.75ZM61.25 56.75C44.2909 56.75 25.9185 64.1249 6.15657 78.6951L7.34343 80.3049C26.9149 65.8751 44.8757 58.75 61.25 58.75V56.75ZM7.75 79.5V19.5H5.75V79.5H7.75Z" fill="#EB2629"/>
</svg>
