<svg width="140" height="182" viewBox="0 0 140 182" fill="none" xmlns="http://www.w3.org/2000/svg">
<path d="M124.5 74.25L125.319 74.8235L125.326 74.814L124.5 74.25ZM104.25 88.75L103.928 87.8031L100.426 88.9927L104.051 89.7299L104.25 88.75ZM128.75 102L128.025 102.689L128.034 102.698L128.75 102ZM116 169L116.48 169.877L116.488 169.873L116.496 169.868L116 169ZM92.75 177.5L92.5392 176.522L92.5351 176.523L92.75 177.5ZM1.5 170H0.5V170.699L1.15624 170.939L1.5 170ZM1.5 115L1.94002 114.102L0.5 113.396V115H1.5ZM35.75 113.5H34.75V114.5H35.75V113.5ZM35.75 67.5V66.5H34.75V67.5H35.75ZM28.25 59.75L27.9687 58.7904L28.25 59.75ZM4.5 69.75H3.5V71.5491L5.02794 70.5993L4.5 69.75ZM4.5 17.25L3.96923 16.4025L3.5 16.6963V17.25H4.5ZM121.75 23L120.98 23.6386L120.987 23.6467L121.75 23ZM130.5 51.75C130.5 59.7126 128.229 67.0165 123.674 73.686L125.326 74.814C130.104 67.8168 132.5 60.1207 132.5 51.75H130.5ZM123.681 73.6765C119.153 80.1442 112.591 84.8611 103.928 87.8031L104.572 89.6969C113.576 86.6389 120.513 81.6891 125.319 74.8235L123.681 73.6765ZM104.051 89.7299C113.697 91.6919 121.676 96.014 128.025 102.689L129.475 101.311C122.824 94.3193 114.47 89.8081 104.449 87.7701L104.051 89.7299ZM128.034 102.698C134.319 109.145 137.5 117.71 137.5 128.5H139.5C139.5 117.29 136.181 108.189 129.466 101.302L128.034 102.698ZM137.5 128.5C137.5 137.688 135.532 145.59 131.637 152.245L133.363 153.255C137.468 146.243 139.5 137.979 139.5 128.5H137.5ZM131.637 152.245C127.727 158.924 122.355 164.217 115.504 168.132L116.496 169.868C123.645 165.783 129.273 160.242 133.363 153.255L131.637 152.245ZM115.52 168.123C108.611 171.906 100.953 174.708 92.5392 176.522L92.9608 178.478C101.547 176.626 109.389 173.761 116.48 169.877L115.52 168.123ZM92.5351 176.523C84.2821 178.339 75.2718 179.25 65.5 179.25V181.25C75.3949 181.25 84.5512 180.328 92.9649 178.477L92.5351 176.523ZM65.5 179.25C41.5937 179.25 20.3801 175.847 1.84376 169.061L1.15624 170.939C19.9532 177.82 41.4063 181.25 65.5 181.25V179.25ZM2.5 170V115H0.5V170H2.5ZM1.05999 115.898C17.8774 124.139 36.6136 128.25 57.25 128.25V126.25C36.8864 126.25 18.4559 122.195 1.94002 114.102L1.05999 115.898ZM57.25 128.25C63.3756 128.25 68.1053 127.583 71.339 126.166C72.9671 125.452 74.2641 124.527 75.1554 123.355C76.0565 122.17 76.5 120.788 76.5 119.25H74.5C74.5 120.379 74.183 121.33 73.5634 122.145C72.9338 122.973 71.9495 123.715 70.536 124.334C67.6863 125.583 63.2911 126.25 57.25 126.25V128.25ZM76.5 119.25C76.5 117.048 75.6636 115.278 73.9353 114.109C72.2767 112.987 69.9147 112.5 67 112.5V114.5C69.7519 114.5 71.6399 114.971 72.8147 115.766C73.9197 116.513 74.5 117.618 74.5 119.25H76.5ZM67 112.5H35.75V114.5H67V112.5ZM36.75 113.5V67.5H34.75V113.5H36.75ZM35.75 68.5H61.75V66.5H35.75V68.5ZM61.75 68.5C64.2506 68.5 66.3034 68.0745 67.7552 67.0732C69.2742 66.0257 70 64.4437 70 62.5H68C68 63.8896 67.5175 64.8077 66.6198 65.4268C65.6549 66.0922 64.0827 66.5 61.75 66.5V68.5ZM70 62.5C70 61.1398 69.6255 59.9094 68.856 58.8499C68.0943 57.801 66.987 56.9757 65.6047 56.3412C62.865 55.0836 58.8784 54.5 53.75 54.5V56.5C58.7882 56.5 62.4267 57.083 64.7703 58.1588C65.9297 58.691 66.7286 59.324 67.2377 60.0251C67.7391 60.7156 68 61.5268 68 62.5H70ZM53.75 54.5C46.2934 54.5 37.6953 55.9395 27.9687 58.7904L28.5313 60.7096C38.1381 57.8938 46.5399 56.5 53.75 56.5V54.5ZM27.9687 58.7904C18.2461 61.6401 10.2388 65.0052 3.97207 68.9007L5.02794 70.5993C11.0945 66.8282 18.9206 63.5266 28.5313 60.7096L27.9687 58.7904ZM5.5 69.75V17.25H3.5V69.75H5.5ZM5.03077 18.0975C21.3393 7.88405 41.3122 2.74999 65 2.74999V0.749992C41.0211 0.749992 20.6607 5.94926 3.96923 16.4025L5.03077 18.0975ZM65 2.74999C76.9128 2.74999 87.6387 4.32186 97.1887 7.4503L97.8113 5.54968C88.028 2.3448 77.0872 0.749992 65 0.749992V2.74999ZM97.1887 7.4503C106.676 10.5583 114.601 15.9501 120.98 23.6386L122.52 22.3614C115.899 14.3832 107.657 8.77505 97.8113 5.54968L97.1887 7.4503ZM120.987 23.6467C127.312 31.1069 130.5 40.4507 130.5 51.75H132.5C132.5 40.0493 129.188 30.2264 122.513 22.3533L120.987 23.6467Z" fill="#EB2629"/>
</svg>
