<svg width="18" height="18" viewBox="0 0 18 18" fill="none" xmlns="http://www.w3.org/2000/svg">
<path d="M11.4356 12.0825L12.6956 10.8225C12.8653 10.6549 13.0801 10.5402 13.3137 10.4923C13.5474 10.4443 13.7899 10.4653 14.0119 10.5525L15.5475 11.1656C15.7718 11.2567 15.9642 11.4121 16.1003 11.6123C16.2365 11.8125 16.3103 12.0486 16.3125 12.2906V15.1031C16.3112 15.2678 16.2766 15.4306 16.2107 15.5815C16.1449 15.7325 16.0492 15.8685 15.9294 15.9815C15.8095 16.0945 15.6681 16.1821 15.5135 16.239C15.359 16.2959 15.1945 16.3209 15.03 16.3125C4.26939 15.6431 2.09814 6.53065 1.68751 3.04315C1.66845 2.87189 1.68587 2.69853 1.73862 2.53448C1.79136 2.37044 1.87825 2.21942 1.99355 2.09136C2.10886 1.96331 2.24997 1.86111 2.4076 1.79151C2.56524 1.7219 2.73582 1.68647 2.90814 1.68752H5.62501C5.86746 1.68824 6.10414 1.76147 6.30462 1.8978C6.50511 2.03413 6.66022 2.22732 6.75001 2.45252L7.36314 3.98815C7.45328 4.20925 7.47628 4.45201 7.42926 4.6861C7.38224 4.9202 7.26729 5.13525 7.09876 5.3044L5.83876 6.5644C5.83876 6.5644 6.56439 11.475 11.4356 12.0825Z" fill="#1C1B18"/>
</svg>
