<svg width="360" height="75" viewBox="0 0 360 75" fill="none" xmlns="http://www.w3.org/2000/svg">
<path d="M51.4191 61.5558C52.1881 62.7088 52.2609 64.003 51.6384 65.4344C51.1795 66.4894 50.4 67.4841 49.299 68.4188C47.813 69.6922 46.0027 70.6569 43.8721 71.3133C41.994 71.8897 40.063 72.1786 38.0777 72.1786H20.1832L26.0089 58.7816H44.5583C45.1138 58.7816 45.6649 58.7019 46.2104 58.5424C46.9689 58.3033 47.4474 57.9555 47.6468 57.498C47.8462 57.0405 47.6654 56.7019 47.1049 56.4835C46.6981 56.3241 46.216 56.2444 45.6605 56.2444H27.1111L34.0333 50.6638H47.4314C49.4363 50.6638 51.123 50.963 52.4913 51.5591C54.0224 52.2363 54.9748 53.2194 55.345 54.5135C55.625 55.468 55.5317 56.4836 55.0637 57.5569C54.4237 59.0288 53.2097 60.3622 51.4191 61.5558ZM42.1313 64.3599H30.2516L29.2658 66.628H41.1455C41.8409 66.628 42.5257 66.5588 43.2011 66.4188C44.2008 66.2202 44.7923 65.9116 44.9731 65.4936C45.1553 65.0763 44.8325 64.7677 44.0058 64.568C43.4503 64.4283 42.8264 64.3588 42.1313 64.3588V64.3599ZM60.246 72.2074L66.6908 66.6269H75.6534L73.4458 58.8983L57.9827 72.2063H49.7359L71.8073 53.0797C72.5212 52.443 73.3685 51.886 74.3508 51.4088C75.4286 50.8913 76.3649 50.6335 77.1594 50.6335C77.9732 50.6335 78.6846 50.8913 79.2933 51.4088C79.8283 51.8666 80.1822 52.4233 80.3528 53.0797L85.4648 72.2063H60.246V72.2074ZM118.364 72.2074H108.688L104.546 66.8072H95.3754L93.0268 72.2074H86.3571L91.1315 61.2266H109.651C110.782 61.2266 111.788 61.0577 112.67 60.7194C113.793 60.2813 114.541 59.6355 114.913 58.7794C115.639 57.1086 114.604 56.2733 111.804 56.2733H93.2851L100.058 50.6927H113.605C116.96 50.6927 119.403 51.3291 120.933 52.6024C122.644 54.0549 122.916 56.1241 121.748 58.8094C121.091 60.3208 120.025 61.6885 118.55 62.9122C117.076 64.1358 115.361 65.0752 113.409 65.7313L118.364 72.2063V72.2074ZM155.23 50.6938L136.233 65.0763L133.133 72.2074H126.464L129.578 65.0463L122.688 50.6938H131.203L135.441 59.4369L146.746 50.6938H155.231H155.23ZM183.873 50.6938L177.16 56.2744H161.975C161.161 56.2744 160.628 56.5633 160.378 57.1397C160.127 57.7174 160.408 58.0052 161.222 58.0052H172.149C174.75 58.0052 176.647 58.6419 177.84 59.9152C179.059 61.2669 179.199 63.0185 178.265 65.1663C177.341 67.2947 175.679 69.0163 173.282 70.3288C171.031 71.5824 168.595 72.2086 165.974 72.2086H146.324L153.024 66.658H168.387C169.083 66.658 169.759 66.5391 170.419 66.2999C171.264 66.0019 171.798 65.5938 172.022 65.0763C172.255 64.5391 172.075 64.131 171.483 63.8527C171.033 63.6541 170.451 63.5547 169.736 63.5547H158.809C156.388 63.5547 154.605 62.9977 153.462 61.8838C152.234 60.6905 152.048 59.1085 152.905 57.1397C153.769 55.1513 155.335 53.5591 157.601 52.3658C159.713 51.2519 161.979 50.6949 164.401 50.6949H183.873V50.6938Z" fill="#1C1B18"/>
<path d="M219.666 72.2258L226.114 66.6452H235.076L232.868 58.9166L217.403 72.2269H209.154H183.873L195.594 66.5886H215.662L218.028 64.5388H197.513L207.232 58.9583H224.469L227.615 56.2302H209.15L218.869 50.6497H236.278V50.6636C236.38 50.6555 236.482 50.6508 236.581 50.6508C237.395 50.6508 238.106 50.9097 238.715 51.4272C239.251 51.8849 239.604 52.443 239.775 53.098L244.888 72.2269H219.665L219.666 72.2258ZM278.892 62.4383C276.056 68.9641 270.171 72.2258 261.237 72.2258H259.838C250.904 72.2258 247.856 68.963 250.694 62.4383L255.793 50.7097H262.434L257.335 62.4383C256.487 64.3874 256.795 65.6411 258.26 66.198C259.035 66.5158 260.832 66.6752 263.652 66.6752C265.895 66.6752 267.597 66.4361 268.758 65.9588C270.317 65.3419 271.472 64.168 272.223 62.4383L277.322 50.7097H283.993L278.892 62.4383ZM311.358 50.7097L304.613 56.2905H298.182L291.251 72.2258H284.583L291.511 56.2905H282.666L289.382 50.7097H311.356H311.358ZM335.8 61.2735C334.432 64.4174 332.07 67.0288 328.716 69.1074C325.36 71.1872 321.815 72.2258 318.082 72.2258H311.622C307.869 72.2258 305.219 71.1872 303.671 69.1074C302.123 67.0288 302.034 64.4174 303.4 61.2735C304.768 58.1299 307.091 55.5833 310.37 53.6341C313.651 51.6838 317.185 50.7097 320.976 50.7097H327.439C331.23 50.7097 333.914 51.6849 335.487 53.6341C337.062 55.5833 337.165 58.1299 335.8 61.2735ZM325.011 56.2905H318.55C316.703 56.2905 314.972 56.7827 313.352 57.7683C311.732 58.7527 310.589 60.0108 309.924 61.543C309.257 63.0749 309.315 64.3135 310.096 65.2588C310.874 66.2038 312.189 66.6763 314.036 66.6763H320.497C322.344 66.6763 324.066 66.2038 325.67 65.2588C327.27 64.3135 328.406 63.0749 329.07 61.543C329.738 60.0108 329.682 58.7527 328.91 57.7683C328.14 56.7838 326.838 56.2905 325.011 56.2905Z" fill="#EB2629"/>
<path fill-rule="evenodd" clip-rule="evenodd" d="M237.552 32.9547C231.808 33.1825 228.472 29.8075 221.119 25.8098C188.537 8.09386 162.329 3.62703 125.852 9.00894C118.571 10.0835 91.075 14.4844 86.3549 16.8819C87.0317 19.5486 91.5245 27.7694 93.2505 29.3372C97.1726 32.9006 104.002 32.6117 109.708 33.0103C121.912 33.8619 134.3 34.4917 146.564 34.7458C172.585 35.2875 198.522 34.9606 224.497 33.9681C276.071 31.9958 304.051 28.9894 352.52 48.3969C357.577 50.4222 357.912 50.1081 358.192 52.5992C356.068 53.5986 345.091 48.435 341.399 47.1975C300.304 33.4111 276.411 35.1119 234.741 37.1061C219.284 37.8458 203.794 38.2928 188.296 38.5736C157.246 39.1364 126.125 38.5956 95.3222 36.0375C71.2678 34.0397 51.4446 31.5636 26.9762 32.6856C15.0389 33.2333 7.55536 36.1358 8.6391 27.7867C27.9573 27.2575 18.613 29.7636 39.6169 24.0998C66.6792 16.8022 99.9709 8.80675 127.503 5.19031C151.301 2.06492 167.71 2.22783 189.742 9.16956C202.902 13.3163 223.112 22.3262 235.005 30.3967C237.725 32.2419 236.372 30.7433 237.553 32.9536L237.552 32.9547Z" fill="#1C1B18"/>
<path fill-rule="evenodd" clip-rule="evenodd" d="M1.77331 48.5329C4.11259 47.6804 19.051 48.8079 16.6091 42.9801C15.2175 39.6571 8.17893 41.062 5.39233 36.6565C8.20313 37.0668 11.233 38.2395 14.1868 39.0148C17.0299 39.7612 19.6562 41.3671 18.81 44.7109C18.1056 47.4979 15.7202 49.2079 12.3052 49.5451L1.77216 48.5329H1.77331Z" fill="#1C1B18"/>
<path fill-rule="evenodd" clip-rule="evenodd" d="M234.824 30.3773C229.035 30.6048 225.672 27.2299 218.261 23.2321C185.42 5.51622 159.005 1.0494 122.238 6.4313C114.9 7.50583 87.1862 11.9068 82.4281 14.3043C83.1104 16.971 87.6381 25.1917 89.3778 26.7596C93.3311 30.3229 100.214 30.034 105.966 30.4326C118.265 31.2842 130.751 31.914 143.113 32.1681C169.341 32.7101 195.482 32.3829 221.663 31.3904C273.645 29.4181 301.849 26.4118 350.701 45.8192C355.796 47.8448 356.134 47.5304 356.417 50.0215C354.276 51.0209 343.21 45.8573 339.491 44.6201C298.069 30.8337 273.988 32.5342 231.988 34.5287C216.408 35.2681 200.796 35.7151 185.175 35.9959C153.878 36.5587 122.512 36.0179 91.4658 33.4598C67.2211 31.462 47.2411 28.9862 22.579 30.1079C10.5471 30.6556 3.00474 33.5581 4.09656 25.2091C23.5682 24.6799 14.15 27.1859 35.3199 21.5221C62.5968 14.2246 96.1524 6.22911 123.901 2.61267C147.887 -0.512717 164.427 -0.349805 186.633 6.59191C199.899 10.7387 220.267 19.7486 232.255 27.8193C234.996 29.6642 233.633 28.1656 234.823 30.3759L234.824 30.3773Z" fill="#EB2629"/>
<path fill-rule="evenodd" clip-rule="evenodd" d="M197.385 26.7988C196.162 16.2372 207.508 19.2874 209.91 23.3279C215.993 33.558 203.497 27.1778 203.496 27.1778C202.072 26.8912 199.022 26.9143 197.384 26.7976L197.385 26.7988Z" fill="#EB2629"/>
<path fill-rule="evenodd" clip-rule="evenodd" d="M1.77331 48.1269C4.11259 47.2741 19.051 48.4019 16.6091 42.5739C15.2175 39.2511 8.17893 40.6561 5.39233 36.2502C8.20313 36.6605 11.233 37.8333 14.1868 38.6086C17.0299 39.355 19.6562 40.9611 18.81 44.3047C18.1056 47.0916 15.7202 48.8016 12.3052 49.1389L1.77216 48.1269H1.77331Z" fill="#EB2629"/>
</svg>
