<svg width="28" height="28" viewBox="0 0 28 28" fill="none" xmlns="http://www.w3.org/2000/svg">
<path d="M17.7887 18.795L19.7487 16.835C20.0127 16.5743 20.3467 16.3959 20.7102 16.3213C21.0736 16.2467 21.4509 16.2793 21.7962 16.415L24.185 17.3688C24.5339 17.5104 24.8332 17.7522 25.0449 18.0636C25.2567 18.3751 25.3715 18.7422 25.375 19.1188V23.4938C25.373 23.75 25.3191 24.0031 25.2167 24.2379C25.1142 24.4727 24.9654 24.6844 24.779 24.8602C24.5926 25.0359 24.3725 25.1721 24.1321 25.2606C23.8917 25.3491 23.6359 25.388 23.38 25.375C6.64124 24.3338 3.26375 10.1588 2.625 4.73379C2.59534 4.46738 2.62244 4.19772 2.70449 3.94253C2.78654 3.68735 2.92169 3.45243 3.10105 3.25323C3.28042 3.05403 3.49992 2.89506 3.74513 2.78679C3.99034 2.67852 4.2557 2.62339 4.52375 2.62504H8.75C9.12713 2.62615 9.4953 2.74007 9.80717 2.95214C10.119 3.1642 10.3603 3.46472 10.5 3.81504L11.4537 6.20379C11.594 6.54772 11.6297 6.92535 11.5566 7.2895C11.4835 7.65364 11.3046 7.98817 11.0425 8.25129L9.0825 10.2113C9.0825 10.2113 10.2112 17.85 17.7887 18.795Z" fill="#1C1B18"/>
</svg>
