<svg width="197" height="41" viewBox="0 0 197 41" fill="none" xmlns="http://www.w3.org/2000/svg">
<path d="M28.1377 33.6505C28.5585 34.2808 28.5984 34.9883 28.2577 35.7708C28.0066 36.3475 27.58 36.8913 26.9775 37.4023C26.1644 38.0984 25.1737 38.6258 24.0078 38.9846C22.9801 39.2997 21.9234 39.4576 20.837 39.4576H11.0447L14.2327 32.134H24.3833C24.6873 32.134 24.9889 32.0904 25.2874 32.0032C25.7025 31.8725 25.9643 31.6824 26.0734 31.4323C26.1825 31.1822 26.0836 30.997 25.7769 30.8777C25.5543 30.7905 25.2904 30.7469 24.9864 30.7469H14.8358L18.6238 27.6962H25.9555C27.0527 27.6962 27.9757 27.8598 28.7244 28.1857C29.5623 28.5559 30.0834 29.0933 30.286 29.8008C30.4393 30.3225 30.3882 30.8777 30.1321 31.4644C29.7819 32.2691 29.1175 32.998 28.1377 33.6505ZM23.0552 35.1834H16.5544L16.0149 36.4233H22.5158C22.8963 36.4233 23.271 36.3855 23.6406 36.309C24.1877 36.2004 24.5114 36.0317 24.6103 35.8032C24.71 35.5751 24.5333 35.4064 24.081 35.2972C23.777 35.2208 23.4356 35.1828 23.0552 35.1828V35.1834ZM32.968 39.4734L36.4947 36.4227H41.3993L40.1912 32.1977L31.7295 39.4728H27.2166L39.2946 29.0169C39.6852 28.6689 40.1489 28.3644 40.6864 28.1035C41.2762 27.8206 41.7886 27.6797 42.2233 27.6797C42.6687 27.6797 43.058 27.8206 43.3911 28.1035C43.6839 28.3538 43.8775 28.6581 43.9709 29.0169L46.7683 39.4728H32.968V39.4734ZM64.7717 39.4734H59.4766L57.2097 36.5213H52.1915L50.9063 39.4734H47.2565L49.8692 33.4706H60.0033C60.6222 33.4706 61.1731 33.3782 61.6557 33.1933C62.2702 32.9538 62.6797 32.6008 62.8827 32.1327C63.2802 31.2194 62.7138 30.7627 61.1819 30.7627H51.0477L54.7542 27.712H62.1673C64.0032 27.712 65.3401 28.0599 66.1773 28.756C67.1137 29.55 67.2625 30.6812 66.6235 32.1491C66.2639 32.9754 65.6801 33.7231 64.8733 34.392C64.0664 35.0609 63.1282 35.5745 62.06 35.9331L64.7717 39.4728V39.4734ZM84.9454 27.7126L74.55 35.5751L72.8535 39.4734H69.2038L70.9079 35.5587L67.1376 27.7126H71.7974L74.1166 32.4922L80.3025 27.7126H84.946H84.9454ZM100.62 27.7126L96.9458 30.7633H88.6362C88.1907 30.7633 87.8993 30.9213 87.7623 31.2364C87.6249 31.5522 87.7788 31.7095 88.2242 31.7095H94.2039C95.6272 31.7095 96.665 32.0576 97.318 32.7537C97.9849 33.4926 98.0619 34.4502 97.5508 35.6243C97.0448 36.7878 96.1357 37.7289 94.824 38.4464C93.592 39.1317 92.2588 39.474 90.8248 39.474H80.0717L83.7379 36.4397H92.1453C92.5258 36.4397 92.896 36.3747 93.257 36.244C93.7193 36.081 94.0115 35.858 94.1345 35.5751C94.262 35.2814 94.1635 35.0583 93.8392 34.9062C93.5932 34.7976 93.2745 34.7432 92.8834 34.7432H86.9037C85.5788 34.7432 84.6035 34.4388 83.9776 33.8298C83.3057 33.1775 83.2042 32.3127 83.6729 31.2364C84.146 30.1494 85.0028 29.279 86.2425 28.6266C87.3983 28.0177 88.6387 27.7132 89.9642 27.7132H100.62V27.7126Z" fill="#1C1B18"/>
<path d="M120.206 39.4837L123.735 36.433H128.639L127.431 32.208L118.968 39.4843H114.454H100.619L107.033 36.402H118.015L119.31 35.2815H108.084L113.402 32.2308H122.834L124.556 30.7394H114.451L119.77 27.6887H129.296V27.6963C129.353 27.6919 129.408 27.6893 129.462 27.6893C129.908 27.6893 130.297 27.8309 130.63 28.1138C130.924 28.364 131.117 28.6691 131.21 29.0271L134.008 39.4843H120.206L120.206 39.4837ZM152.616 34.1332C151.064 37.7006 147.844 39.4837 142.955 39.4837H142.189C137.3 39.4837 135.633 37.7 137.185 34.1332L139.976 27.7215H143.61L140.819 34.1332C140.356 35.1987 140.524 35.884 141.326 36.1885C141.75 36.3622 142.733 36.4494 144.276 36.4494C145.504 36.4494 146.435 36.3186 147.07 36.0577C147.923 35.7205 148.555 35.0787 148.967 34.1332L151.757 27.7215H155.407L152.616 34.1332ZM170.382 27.7215L166.691 30.7724H163.172L159.379 39.4837H155.73L159.522 30.7724H154.681L158.356 27.7215H170.381H170.382ZM183.757 33.4964C183.008 35.2151 181.716 36.6427 179.881 37.779C178.044 38.9159 176.104 39.4837 174.062 39.4837H170.526C168.473 39.4837 167.023 38.9159 166.176 37.779C165.328 36.6427 165.28 35.2151 166.027 33.4964C166.776 31.7779 168.047 30.3858 169.841 29.3202C171.637 28.2541 173.571 27.7215 175.645 27.7215H179.182C181.257 27.7215 182.725 28.2547 183.586 29.3202C184.448 30.3858 184.504 31.7779 183.757 33.4964ZM177.853 30.7724H174.318C173.307 30.7724 172.36 31.0415 171.473 31.5802C170.587 32.1184 169.961 32.8061 169.597 33.6437C169.232 34.4812 169.264 35.1583 169.691 35.6751C170.117 36.1917 170.837 36.45 171.848 36.45H175.383C176.394 36.45 177.336 36.1917 178.214 35.6751C179.09 35.1583 179.711 34.4812 180.075 33.6437C180.44 32.8061 180.41 32.1184 179.987 31.5802C179.566 31.0421 178.853 30.7724 177.853 30.7724Z" fill="#EB2629"/>
<path fill-rule="evenodd" clip-rule="evenodd" d="M129.994 18.0152C126.85 18.1398 125.025 16.2948 121.001 14.1093C103.171 4.42464 88.8299 1.98277 68.8688 4.92489C64.8845 5.5123 49.8383 7.91816 47.2553 9.22878C47.6257 10.6866 50.0842 15.1806 51.0288 16.0377C53.175 17.9856 56.9119 17.8277 60.0348 18.0456C66.713 18.5112 73.4919 18.8554 80.2029 18.9944C94.4424 19.2905 108.636 19.1118 122.85 18.5692C151.072 17.4911 166.383 15.8476 192.907 26.457C195.674 27.5641 195.857 27.3924 196.01 28.7542C194.848 29.3006 188.841 26.4778 186.821 25.8013C164.333 18.2647 151.258 19.1945 128.456 20.2847C119.997 20.6891 111.521 20.9334 103.04 21.0869C86.0482 21.3946 69.0182 21.0989 52.1624 19.7005C38.9993 18.6084 28.1516 17.2548 14.762 17.8681C8.22963 18.1676 4.13446 19.7543 4.7275 15.19C15.2989 14.9008 10.1854 16.2708 21.6792 13.1745C36.4883 9.1852 54.7063 4.81436 69.7722 2.83737C82.7953 1.12882 91.7749 1.21788 103.831 5.01269C111.033 7.27958 122.092 12.205 128.6 16.6168C130.088 17.6256 129.348 16.8064 129.994 18.0146L129.994 18.0152Z" fill="#1C1B18"/>
<path fill-rule="evenodd" clip-rule="evenodd" d="M0.970418 26.5312C2.25052 26.0652 10.4251 26.6816 9.08888 23.4957C8.32738 21.6791 4.47571 22.4472 2.95083 20.0388C4.48896 20.2631 6.14697 20.9042 7.76334 21.328C9.31916 21.7361 10.7563 22.6139 10.2933 24.4419C9.90779 25.9654 8.60245 26.9002 6.73371 27.0846L0.969788 26.5312H0.970418Z" fill="#1C1B18"/>
<path fill-rule="evenodd" clip-rule="evenodd" d="M128.501 16.6062C125.333 16.7306 123.493 14.8856 119.437 12.7002C101.466 3.01546 87.0109 0.573599 66.8915 3.51571C62.8757 4.10312 47.7102 6.50898 45.1065 7.8196C45.4798 9.27739 47.9575 13.7714 48.9095 14.6285C51.0728 16.5764 54.8393 16.4185 57.9869 16.6364C64.7173 17.102 71.5501 17.4462 78.3146 17.5852C92.6669 17.8814 106.972 17.7026 121.299 17.16C149.745 16.0818 165.178 14.4384 191.911 25.0478C194.7 26.1551 194.884 25.9832 195.039 27.345C193.868 27.8914 187.812 25.0686 185.777 24.3922C163.11 16.8557 149.933 17.7853 126.949 18.8756C118.423 19.2798 109.88 19.5242 101.332 19.6777C84.2054 19.9853 67.041 19.6897 50.0521 18.2913C36.7849 17.1992 25.8514 15.8457 12.3557 16.4589C5.77159 16.7583 1.64423 18.345 2.2417 13.7809C12.897 13.4916 7.74317 14.8616 19.3278 11.7653C34.2543 7.77602 52.6167 3.40517 67.8012 1.42819C80.9271 -0.280357 89.9781 -0.191298 102.13 3.60351C109.389 5.8704 120.535 10.7958 127.095 15.2078C128.595 16.2164 127.849 15.3971 128.5 16.6054L128.501 16.6062Z" fill="#EB2629"/>
<path fill-rule="evenodd" clip-rule="evenodd" d="M108.014 14.65C107.344 8.87635 113.553 10.5438 114.868 12.7526C118.196 18.3451 111.358 14.8572 111.357 14.8572C110.578 14.7006 108.909 14.7132 108.013 14.6494L108.014 14.65Z" fill="#EB2629"/>
<path fill-rule="evenodd" clip-rule="evenodd" d="M0.970418 26.3092C2.25052 25.843 10.4251 26.4596 9.08888 23.2736C8.32738 21.4571 4.47571 22.2252 2.95083 19.8167C4.48896 20.0409 6.14697 20.6821 7.76334 21.1059C9.31916 21.5139 10.7563 22.3919 10.2933 24.2197C9.90779 25.7433 8.60245 26.6781 6.73371 26.8624L0.969788 26.3092H0.970418Z" fill="#EB2629"/>
</svg>
